<svg style="position: absolute; width: 0; height: 0; overflow: hidden;" version="1.1" xmlns="http://www.w3.org/2000/svg" xmlns:xlink="http://www.w3.org/1999/xlink">
    <defs>
        <symbol id="icon-menu" viewBox="0 0 24 24">
            <title>menu</title>
            <path d="M21 18H3V16H21V18ZM21 13H3V11H21V13ZM21 8H3V6H21V8Z"></path>
        </symbol>
        <symbol id="icon-search" viewBox="0 0 24 24">
            <title>search</title>
            <path fill-rule="evenodd" clip-rule="evenodd" d="M4 11.5C4 7.63401 7.13401 4.5 11 4.5C14.866 4.5 18 7.63401 18 11.5C18 13.2991 17.3213 14.9398 16.2059 16.1797L15.6797 16.7059C14.4398 17.8213 12.7991 18.5 11 18.5C7.13401 18.5 4 15.366 4 11.5ZM16.6177 18.5319C15.078 19.7635 13.125 20.5 11 20.5C6.02944 20.5 2 16.4706 2 11.5C2 6.52944 6.02944 2.5 11 2.5C15.9706 2.5 20 6.52944 20 11.5C20 13.625 19.2635 15.578 18.0319 17.1177L21.707 20.7928L22.4141 21.4999L20.9999 22.9141L20.2928 22.207L16.6177 18.5319Z" />

        </symbol>

        <symbol id='icon-arrow-right' viewBox="0 0 24 24">
            <title>arrow-right</title>
            <path d="M5 12H19" stroke="black" stroke-width="2" stroke-linecap="round" stroke-linejoin="round" />
            <path d="M12 5L19 12L12 19" stroke="black" stroke-width="2" stroke-linecap="square" stroke-linejoin="round" />
        </symbol>

        <symbol id='icon-arrow-left' viewBox="0 0 24 24">
            <title>arrow-left</title>
            <path d="M19 12H5" stroke="black" stroke-width="2" stroke-linecap="round" stroke-linejoin="round" />
            <path d="M12 19L5 12L12 5" stroke="black" stroke-width="2" stroke-linecap="square" stroke-linejoin="round" />
        </symbol>
    </defs>
</svg>